{"title":"solo_girl_ 7","uid":5076596,"size":8353888,"categoryP":"porn","categoryS":"movie_clips","magnet":"?xt=urn:btih:866381d74baf10cd6f59ad4b456a8d7607bb4434&amp;dn=solo_girl_+7&amp;tr=udp%3A%2F%2Ftracker.openbittorrent.com%3A80&amp;tr=udp%3A%2F%2Fopen.demonii.com%3A1337&amp;tr=udp%3A%2F%2Ftracker.coppersurfer.tk%3A6969&amp;tr=udp%3A%2F%2Fexodus.desync.com%3A6969","seeders":0,"leechers":0,"uploader":"sandokan89","files":-1,"time":1251903121,"description":"----------------- solo_girl_ 7 -------------------------\n\nVideo\nFormat                           : VP6 ---- Flash Video\nDuration                         : 2mn 37s\nBit rate                         : 347 Kbps\nWidth                            : 640 pixels\nHeight                           : 480 pixels\nDisplay aspect ratio             : 4/3\nFrame rate                       : 30.000 fps\nBits/(Pixel*Frame)               : 0.038\nStream size                      : 6.64 MiB (83%)\n\nAudio\nFormat                           : MPEG Audio\nFormat version                   : Version 2.5\nFormat profile                   : Layer 3\nDuration                         : 2mn 37s\nBit rate mode                    : Constant\nBit rate                         : 64.0 Kbps\nChannel(s)                       : 1 channel\nSampling rate                    : 11.025 KHz\nResolution                       : 16 bits\nVideo delay                      : 63ms\nStream size                      : 1.20 MiB (15%)","torrent":{"xt":"urn:btih:866381d74baf10cd6f59ad4b456a8d7607bb4434","amp;dn":"solo_girl_+7","amp;tr":["udp%3A%2F%2Ftracker.openbittorrent.com%3A80","udp%3A%2F%2Fopen.demonii.com%3A1337","udp%3A%2F%2Ftracker.coppersurfer.tk%3A6969","udp%3A%2F%2Fexodus.desync.com%3A6969"],"infoHash":"866381d74baf10cd6f59ad4b456a8d7607bb4434","infoHashBuffer":{"type":"Buffer","data":[134,99,129,215,75,175,16,205,111,89,173,75,69,106,141,118,7,187,68,52]},"announce":[],"urlList":[]}}